<?xml version="1.0" encoding="UTF-8"?>
<svg xmlns="http://www.w3.org/2000/svg" xmlns:xlink="http://www.w3.org/1999/xlink" width="200pt" height="54pt" viewBox="0 0 200 54" version="1.1">
<g id="surface1">
<path style=" stroke:none;fill-rule:nonzero;fill:rgb(0%,0%,0%);fill-opacity:1;" d="M 10.050781 9.550781 C 8.664062 9.742188 7.265625 10.242188 6.230469 10.933594 C 5.503906 11.417969 4.464844 12.488281 4.113281 13.113281 C 3.03125 15.0625 3.066406 17.96875 4.191406 19.730469 C 4.699219 20.523438 5.484375 21.148438 6.746094 21.773438 C 8.058594 22.417969 9.203125 22.796875 11.183594 23.25 C 13.816406 23.855469 14.988281 24.347656 15.457031 25.03125 C 15.714844 25.398438 15.722656 25.675781 15.488281 26.175781 C 15.25 26.6875 14.96875 26.960938 14.449219 27.207031 C 14.050781 27.386719 13.863281 27.40625 12.078125 27.398438 C 10.683594 27.398438 9.9375 27.351562 9.390625 27.238281 C 7.625 26.875 6.859375 26.660156 5.691406 26.167969 C 5.371094 26.023438 5.050781 25.941406 4.984375 25.96875 C 4.917969 25.988281 4.757812 26.261719 4.632812 26.566406 C 4.5 26.875 4.097656 27.765625 3.707031 28.550781 C 3.332031 29.339844 3.019531 30.03125 3.019531 30.078125 C 3.019531 30.3125 5.597656 31.382812 7.03125 31.742188 C 8.796875 32.1875 9.898438 32.3125 12.03125 32.3125 C 13.695312 32.3125 14.183594 32.28125 15.023438 32.101562 C 17.175781 31.667969 18.421875 31.015625 19.695312 29.640625 C 20.875 28.382812 21.480469 26.335938 21.242188 24.453125 C 21.007812 22.558594 20.273438 21.367188 18.6875 20.316406 C 17.402344 19.464844 16.296875 19.058594 13.402344 18.367188 C 11.390625 17.894531 10.429688 17.582031 9.757812 17.183594 C 9.390625 16.964844 9.183594 16.660156 9.011719 16.113281 C 8.851562 15.554688 9.277344 14.929688 10.078125 14.550781 C 10.476562 14.363281 10.664062 14.34375 11.9375 14.351562 C 13.617188 14.363281 15.054688 14.625 17.023438 15.296875 C 17.695312 15.527344 18.261719 15.707031 18.269531 15.6875 C 18.28125 15.675781 18.59375 15.089844 18.960938 14.390625 C 19.320312 13.6875 19.828125 12.722656 20.082031 12.261719 C 20.433594 11.625 20.527344 11.378906 20.441406 11.304688 C 20.082031 10.953125 16.75 9.96875 15.003906 9.703125 C 13.890625 9.523438 10.917969 9.4375 10.050781 9.550781 Z M 10.050781 9.550781 "/>
<path style=" stroke:none;fill-rule:nonzero;fill:rgb(0%,0%,0%);fill-opacity:1;" d="M 54.972656 9.523438 C 52.125 9.960938 50.132812 10.925781 48.140625 12.828125 C 46.242188 14.644531 45.074219 16.84375 44.722656 19.246094 C 44.515625 20.695312 44.734375 22.996094 45.226562 24.472656 C 45.820312 26.261719 47.195312 28.277344 48.566406 29.355469 C 48.859375 29.585938 49.140625 29.8125 49.207031 29.867188 C 49.472656 30.105469 50.445312 30.691406 51.132812 31.042969 C 54.824219 32.898438 59.625 32.625 63.117188 30.359375 C 65.070312 29.09375 66.65625 27.160156 67.515625 25.011719 C 68.128906 23.488281 68.269531 22.683594 68.269531 20.921875 C 68.261719 19.492188 68.242188 19.265625 67.976562 18.269531 C 67.628906 16.957031 67.289062 16.066406 66.796875 15.222656 C 66.296875 14.34375 65.421875 13.273438 64.714844 12.675781 C 64.390625 12.390625 64.109375 12.136719 64.082031 12.109375 C 63.921875 11.929688 62.417969 10.953125 61.863281 10.679688 C 61.109375 10.300781 60.003906 9.921875 59.03125 9.703125 C 58.390625 9.550781 55.578125 9.4375 54.972656 9.523438 Z M 58.351562 14.996094 C 59.796875 15.449219 61.117188 16.597656 61.824219 18.035156 C 62.316406 19.046875 62.503906 19.832031 62.503906 20.921875 C 62.503906 22.597656 62.015625 23.886719 60.976562 24.972656 C 59.898438 26.101562 59.15625 26.566406 57.910156 26.886719 C 54.964844 27.632812 51.800781 25.890625 50.832031 22.984375 C 50.460938 21.886719 50.359375 21.035156 50.492188 20.125 C 50.765625 18.234375 51.558594 16.890625 53 15.847656 C 53.859375 15.234375 54.453125 14.996094 55.824219 14.730469 C 56.3125 14.644531 57.664062 14.777344 58.351562 14.996094 Z M 58.351562 14.996094 "/>
<path style=" stroke:none;fill-rule:nonzero;fill:rgb(0%,0%,0%);fill-opacity:1;" d="M 161.855469 9.515625 C 161.777344 9.535156 161.390625 9.597656 161.003906 9.65625 C 159.023438 9.976562 157.539062 10.652344 155.71875 12.03125 C 153.578125 13.671875 152.085938 16.054688 151.558594 18.707031 C 151.273438 20.144531 151.332031 22.210938 151.707031 23.667969 C 152.625 27.285156 155.445312 30.304688 159.125 31.601562 C 160.542969 32.101562 161.417969 32.234375 163.363281 32.226562 C 165.003906 32.214844 165.175781 32.199219 166.242188 31.921875 C 168.203125 31.410156 170.1875 30.277344 171.726562 28.78125 C 172.054688 28.457031 172.328125 28.144531 172.320312 28.089844 C 172.320312 28.023438 172.09375 27.785156 171.828125 27.558594 C 170.289062 26.269531 169.027344 25.191406 168.714844 24.898438 C 168.101562 24.339844 168.148438 24.332031 167.25 25.203125 C 165.96875 26.441406 165.042969 26.875 163.496094 26.953125 C 162.277344 27.019531 161.4375 26.875 160.476562 26.421875 C 158.363281 25.429688 157.105469 23.089844 157.257812 20.421875 C 157.351562 18.667969 157.8125 17.589844 158.9375 16.464844 C 159.285156 16.113281 159.832031 15.675781 160.171875 15.488281 C 161.75 14.609375 164.035156 14.53125 165.582031 15.308594 C 166.269531 15.660156 166.542969 15.875 167.308594 16.632812 C 167.675781 17.011719 168.007812 17.324219 168.015625 17.324219 C 168.082031 17.324219 169.15625 16.464844 170.261719 15.535156 C 172.207031 13.878906 172.328125 13.773438 172.328125 13.640625 C 172.328125 13.5 170.449219 11.863281 169.78125 11.417969 C 168.535156 10.59375 167.082031 9.988281 165.636719 9.695312 C 164.996094 9.5625 162.203125 9.429688 161.855469 9.515625 Z M 161.855469 9.515625 "/>
<path style=" stroke:none;fill-rule:nonzero;fill:rgb(0%,0%,0%);fill-opacity:1;" d="M 103.953125 9.75 L 102.820312 9.796875 L 102.660156 10.128906 C 102.566406 10.308594 102.105469 11.3125 101.632812 12.355469 C 101.160156 13.394531 100.445312 14.949219 100.039062 15.808594 C 99.632812 16.671875 98.980469 18.074219 98.59375 18.933594 C 98.207031 19.796875 97.613281 21.074219 97.273438 21.773438 C 96.941406 22.476562 96.527344 23.375 96.355469 23.761719 C 96.1875 24.152344 95.667969 25.277344 95.195312 26.269531 C 94.734375 27.253906 94.121094 28.5625 93.835938 29.160156 C 93.148438 30.605469 92.800781 31.421875 92.722656 31.722656 L 92.667969 31.96875 L 93.449219 32.027344 C 94.714844 32.132812 98.234375 32.101562 98.441406 32 C 98.539062 31.941406 98.621094 31.835938 98.621094 31.769531 C 98.621094 31.628906 98.980469 30.738281 100.332031 27.550781 C 101.59375 24.578125 101.738281 24.253906 101.953125 23.78125 C 102.046875 23.5625 102.578125 22.351562 103.105469 21.082031 C 103.726562 19.605469 104.132812 18.78125 104.226562 18.765625 C 104.3125 18.746094 104.378906 18.78125 104.378906 18.847656 C 104.378906 19.019531 105.871094 22.703125 106.503906 24.09375 C 106.683594 24.472656 107.511719 26.414062 108.539062 28.828125 C 109.003906 29.914062 109.523438 31.089844 109.691406 31.429688 L 109.996094 32.046875 L 112.84375 32.046875 C 114.410156 32.046875 115.714844 32.015625 115.742188 31.988281 C 115.769531 31.960938 115.25 30.769531 114.582031 29.339844 C 113.921875 27.910156 113.003906 25.957031 112.5625 24.992188 C 112.117188 24.027344 111.570312 22.835938 111.335938 22.34375 C 110.796875 21.207031 109.785156 19.027344 109.144531 17.609375 C 108.871094 17.011719 108.277344 15.734375 107.824219 14.769531 C 107.378906 13.804688 106.832031 12.609375 106.625 12.117188 C 105.824219 10.234375 105.4375 9.589844 105.152344 9.675781 C 105.113281 9.683594 104.578125 9.714844 103.953125 9.75 Z M 103.953125 9.75 "/>
<path style=" stroke:none;fill-rule:nonzero;fill:rgb(0%,0%,0%);fill-opacity:1;" d="M 142.316406 9.75 C 142.316406 9.78125 142.316406 14.777344 142.316406 20.875 L 142.316406 31.953125 L 145.167969 31.980469 L 148.027344 32 L 148.027344 20.875 C 148.027344 10.699219 148.019531 9.742188 147.875 9.703125 C 147.679688 9.636719 142.316406 9.683594 142.316406 9.75 Z M 142.316406 9.75 "/>
<path style=" stroke:none;fill-rule:nonzero;fill:rgb(0%,0%,0%);fill-opacity:1;" d="M 24.394531 20.847656 C 24.394531 26.953125 24.425781 31.96875 24.460938 32 C 24.566406 32.074219 29.558594 32.121094 29.839844 32.046875 L 30.078125 31.988281 L 30.066406 29.460938 L 30.058594 26.933594 L 30.578125 26.960938 C 30.859375 26.980469 31.964844 26.941406 33.050781 26.886719 C 37.191406 26.679688 39.195312 25.921875 40.921875 23.894531 C 41.554688 23.164062 41.855469 22.617188 42.175781 21.660156 C 42.628906 20.335938 42.703125 19.851562 42.695312 18.128906 C 42.695312 16.691406 42.667969 16.40625 42.429688 15.480469 C 42.148438 14.363281 41.667969 13.339844 41.070312 12.609375 C 40.167969 11.492188 38.542969 10.519531 36.855469 10.0625 L 35.910156 9.808594 L 30.152344 9.769531 L 24.394531 9.742188 Z M 33.570312 14.589844 C 34.429688 14.703125 35.304688 15.082031 35.738281 15.515625 C 36.183594 15.953125 36.691406 17.070312 36.816406 17.855469 C 37.023438 19.160156 36.503906 20.542969 35.523438 21.292969 C 34.605469 21.992188 33.457031 22.246094 31.277344 22.246094 L 30.011719 22.246094 L 30.011719 18.367188 L 30.019531 14.484375 L 31.425781 14.484375 C 32.199219 14.484375 33.164062 14.53125 33.570312 14.589844 Z M 33.570312 14.589844 "/>
<path style=" stroke:none;fill-rule:nonzero;fill:rgb(0%,0%,0%);fill-opacity:1;" d="M 71.628906 20.855469 C 71.628906 29.667969 71.660156 31.988281 71.753906 32.015625 C 71.941406 32.09375 76.851562 32.113281 77.113281 32.046875 L 77.351562 31.988281 L 77.339844 29.472656 L 77.339844 26.941406 L 79.210938 26.953125 C 80.925781 26.953125 81.097656 26.972656 81.246094 27.132812 C 81.34375 27.226562 81.917969 28.011719 82.539062 28.875 C 83.152344 29.734375 83.929688 30.777344 84.25 31.203125 L 84.832031 31.96875 L 85.757812 32.027344 C 87.722656 32.160156 91.542969 32.082031 91.542969 31.914062 C 91.542969 31.875 90.714844 30.804688 89.703125 29.527344 C 88.683594 28.257812 87.664062 26.960938 87.417969 26.648438 C 87.183594 26.335938 86.949219 26.0625 86.902344 26.054688 C 86.65625 25.949219 86.890625 25.644531 87.53125 25.238281 C 88.875 24.386719 89.949219 22.957031 90.394531 21.441406 C 90.769531 20.144531 90.828125 19.664062 90.828125 18.128906 C 90.816406 15.875 90.457031 14.464844 89.542969 13.101562 C 88.535156 11.585938 87.015625 10.601562 84.796875 10.007812 C 84.070312 9.816406 83.804688 9.808594 77.839844 9.78125 L 71.628906 9.742188 Z M 82.34375 14.691406 C 83.425781 15.015625 84.011719 15.480469 84.457031 16.367188 C 84.84375 17.144531 84.964844 17.789062 84.910156 18.707031 C 84.804688 20.449219 83.84375 21.585938 82.058594 22.046875 C 81.417969 22.21875 81.03125 22.246094 79.304688 22.246094 L 77.292969 22.246094 L 77.292969 14.464844 L 79.585938 14.511719 C 81.210938 14.542969 82.003906 14.597656 82.34375 14.691406 Z M 82.34375 14.691406 "/>
<path style=" stroke:none;fill-rule:nonzero;fill:rgb(0%,0%,0%);fill-opacity:1;" d="M 118.347656 20.875 L 118.347656 32 L 118.582031 32.054688 C 118.714844 32.09375 121.234375 32.09375 124.179688 32.066406 C 129.179688 32.015625 129.585938 32.007812 130.453125 31.820312 C 131.511719 31.582031 132.457031 31.230469 133.390625 30.703125 C 134.117188 30.292969 135.636719 29.0625 135.996094 28.601562 C 137.457031 26.667969 137.855469 25.96875 138.355469 24.433594 C 139.214844 21.785156 139.117188 19.339844 138.0625 16.605469 C 136.949219 13.726562 134.257812 11.257812 131.199219 10.28125 C 129.605469 9.78125 129.226562 9.75 123.574219 9.75 L 118.347656 9.75 Z M 129.246094 15.082031 C 130.605469 15.449219 131.890625 16.546875 132.597656 17.941406 C 134.171875 21.035156 133.164062 24.660156 130.277344 26.28125 C 129.417969 26.761719 128.511719 26.886719 125.925781 26.886719 L 123.820312 26.886719 L 123.820312 14.855469 L 126.300781 14.902344 C 127.917969 14.9375 128.933594 15.003906 129.246094 15.082031 Z M 129.246094 15.082031 "/>
<path style=" stroke:none;fill-rule:nonzero;fill:rgb(0%,0%,0%);fill-opacity:1;" d="M 183.957031 9.875 C 183.898438 9.941406 183.703125 10.320312 183.523438 10.707031 C 183.351562 11.09375 182.984375 11.871094 182.71875 12.441406 C 182.457031 13 182.238281 13.480469 182.238281 13.5 C 182.238281 13.507812 181.746094 14.578125 181.144531 15.875 C 180.539062 17.164062 179.71875 18.945312 179.3125 19.832031 C 178.90625 20.714844 178.371094 21.886719 178.105469 22.4375 C 177.851562 22.984375 177.226562 24.320312 176.71875 25.417969 C 176.207031 26.507812 175.453125 28.15625 175.019531 29.0625 C 173.867188 31.523438 173.707031 31.902344 173.78125 31.96875 C 173.820312 32.007812 175.121094 32.054688 176.671875 32.074219 L 179.5 32.113281 L 179.824219 31.421875 C 180 31.03125 180.550781 29.765625 181.039062 28.589844 C 181.53125 27.417969 182.4375 25.304688 183.039062 23.902344 C 183.644531 22.492188 184.304688 20.941406 184.503906 20.449219 C 185.144531 18.839844 185.191406 18.734375 185.285156 18.773438 C 185.382812 18.800781 185.710938 19.539062 186.675781 21.820312 C 186.890625 22.34375 187.296875 23.28125 187.570312 23.902344 C 187.84375 24.527344 188.421875 25.875 188.84375 26.886719 C 190.109375 29.878906 191.035156 31.941406 191.148438 32.027344 C 191.261719 32.101562 196.527344 32.113281 196.734375 32.027344 C 196.875 31.96875 196.914062 31.707031 196.792969 31.5625 C 196.742188 31.515625 196.253906 30.492188 195.707031 29.300781 C 195.160156 28.097656 194.488281 26.648438 194.222656 26.082031 C 193.722656 25.03125 193.375 24.273438 192.902344 23.242188 C 192.421875 22.191406 191.949219 21.167969 191.25 19.691406 C 190.875 18.886719 190.363281 17.777344 190.117188 17.230469 C 189.875 16.679688 189.421875 15.707031 189.109375 15.050781 C 188.523438 13.820312 187.976562 12.621094 187.164062 10.839844 L 186.703125 9.796875 L 185.382812 9.769531 C 184.363281 9.75 184.03125 9.78125 183.957031 9.875 Z M 183.957031 9.875 "/>
<path style=" stroke:none;fill-rule:nonzero;fill:rgb(0%,0%,0%);fill-opacity:1;" d="M 71.113281 34.90625 C 69.367188 35.320312 67.996094 36.210938 67.042969 37.546875 C 66.535156 38.265625 66.296875 38.804688 66.109375 39.703125 C 65.761719 41.410156 66.136719 42.960938 67.25 44.417969 C 67.894531 45.242188 68.65625 45.820312 69.742188 46.265625 C 71.59375 47.03125 73.933594 46.890625 75.527344 45.90625 C 76.207031 45.488281 76.765625 45.015625 76.914062 44.730469 C 77.027344 44.515625 77.019531 44.464844 76.773438 44.210938 C 76.625 44.050781 76.453125 43.925781 76.386719 43.925781 C 76.320312 43.925781 75.980469 44.152344 75.632812 44.4375 C 74.6875 45.175781 74.121094 45.441406 73.132812 45.601562 C 72.394531 45.726562 72.140625 45.734375 71.480469 45.632812 C 69.667969 45.367188 68.175781 44.164062 67.535156 42.460938 C 67.335938 41.910156 67.289062 41.636719 67.289062 40.898438 C 67.289062 40.40625 67.335938 39.820312 67.382812 39.601562 C 67.921875 37.253906 70.613281 35.53125 73.046875 35.976562 C 73.847656 36.117188 75.027344 36.703125 75.71875 37.300781 C 76.019531 37.566406 76.300781 37.773438 76.347656 37.773438 C 76.460938 37.773438 77.011719 37.1875 77.011719 37.054688 C 77.011719 36.921875 76.347656 36.304688 75.785156 35.910156 C 74.78125 35.226562 73.453125 34.828125 72.160156 34.847656 C 71.6875 34.859375 71.214844 34.875 71.113281 34.90625 Z M 71.113281 34.90625 "/>
<path style=" stroke:none;fill-rule:nonzero;fill:rgb(0%,0%,0%);fill-opacity:1;" d="M 126.179688 35.019531 C 124.492188 35.453125 123.539062 36.542969 123.519531 38.039062 C 123.507812 39.589844 124.640625 40.480469 127.660156 41.277344 C 129.511719 41.769531 130.144531 42.023438 130.644531 42.496094 C 131.171875 42.980469 131.292969 43.480469 131.066406 44.230469 C 130.757812 45.269531 129.710938 45.746094 127.738281 45.734375 C 126.671875 45.726562 125.792969 45.574219 124.78125 45.207031 C 124.394531 45.074219 124 44.96875 123.886719 44.988281 C 123.488281 45.042969 123.359375 45.765625 123.714844 45.886719 C 123.800781 45.914062 124.039062 46.019531 124.246094 46.105469 C 126.3125 47.003906 128.726562 47.097656 130.484375 46.351562 C 131.492188 45.925781 132.011719 45.335938 132.277344 44.296875 C 132.558594 43.207031 132.277344 42.308594 131.445312 41.644531 C 130.664062 41.03125 130.019531 40.773438 127.546875 40.09375 C 126.425781 39.789062 125.980469 39.601562 125.453125 39.203125 C 125.019531 38.890625 124.667969 38.304688 124.667969 37.90625 C 124.667969 37.527344 125.121094 36.769531 125.519531 36.496094 C 126.640625 35.71875 127.878906 35.679688 130.699219 36.363281 C 131.578125 36.570312 131.683594 36.542969 131.796875 36.050781 C 131.871094 35.765625 131.777344 35.691406 130.917969 35.398438 C 129.371094 34.859375 127.398438 34.695312 126.179688 35.019531 Z M 126.179688 35.019531 "/>
<path style=" stroke:none;fill-rule:nonzero;fill:rgb(0%,0%,0%);fill-opacity:1;" d="M 178.953125 35.019531 C 176.914062 35.605469 175.433594 36.816406 174.660156 38.53125 C 174.28125 39.355469 174.179688 39.835938 174.179688 40.804688 C 174.179688 42.414062 174.746094 43.699219 176.011719 44.96875 C 176.746094 45.707031 177.359375 46.074219 178.558594 46.492188 C 179.085938 46.683594 179.359375 46.710938 180.492188 46.71875 C 181.605469 46.71875 181.917969 46.683594 182.472656 46.511719 C 184.058594 46 185.511719 44.742188 186.125 43.3125 C 186.664062 42.082031 186.824219 41.171875 186.675781 40.167969 C 186.503906 38.976562 186.269531 38.359375 185.625 37.433594 C 184.910156 36.382812 183.164062 35.265625 181.8125 34.980469 C 180.917969 34.792969 179.691406 34.808594 178.953125 35.019531 Z M 182.125 36.203125 C 183.664062 36.730469 184.832031 37.972656 185.363281 39.621094 C 185.550781 40.226562 185.503906 41.597656 185.257812 42.347656 C 184.917969 43.40625 183.976562 44.515625 182.898438 45.128906 C 182.324219 45.460938 181.199219 45.726562 180.425781 45.726562 C 179.757812 45.726562 178.53125 45.402344 178 45.089844 C 177.285156 44.675781 176.273438 43.585938 175.90625 42.839844 C 175.605469 42.222656 175.585938 42.109375 175.558594 41.039062 C 175.519531 40.007812 175.546875 39.820312 175.753906 39.203125 C 176.125 38.144531 176.613281 37.507812 177.613281 36.828125 C 178.144531 36.46875 178.972656 36.117188 179.644531 35.976562 C 180.226562 35.84375 181.390625 35.957031 182.125 36.203125 Z M 182.125 36.203125 "/>
<path style=" stroke:none;fill-rule:nonzero;fill:rgb(0%,0%,0%);fill-opacity:1;" d="M 190.921875 34.980469 C 189.496094 35.378906 188.675781 36.050781 188.289062 37.148438 C 188.023438 37.90625 188.0625 38.40625 188.429688 39.175781 C 188.863281 40.066406 190.042969 40.6875 192.476562 41.324219 C 194.546875 41.863281 195.394531 42.335938 195.753906 43.140625 C 195.921875 43.539062 195.921875 43.566406 195.761719 44.089844 C 195.554688 44.761719 195.054688 45.269531 194.414062 45.488281 C 193.042969 45.945312 190.929688 45.8125 189.242188 45.15625 C 188.535156 44.882812 188.316406 44.902344 188.195312 45.253906 C 188.0625 45.660156 188.144531 45.8125 188.648438 46.027344 C 191.109375 47.097656 194.035156 47.125 195.660156 46.085938 C 196.394531 45.621094 196.734375 45.121094 196.953125 44.191406 C 197.179688 43.246094 197.027344 42.667969 196.386719 41.984375 C 195.574219 41.125 194.394531 40.625 191.535156 39.933594 C 190.988281 39.800781 190.101562 39.296875 189.789062 38.949219 C 189.15625 38.21875 189.183594 37.441406 189.863281 36.730469 C 190.230469 36.351562 190.421875 36.238281 191.015625 36.070312 C 191.621094 35.890625 191.863281 35.859375 192.714844 35.910156 C 193.28125 35.945312 194.128906 36.070312 194.695312 36.210938 C 196.28125 36.597656 196.242188 36.597656 196.375 36.316406 C 196.441406 36.171875 196.488281 35.992188 196.488281 35.917969 C 196.488281 35.730469 195.875 35.464844 194.734375 35.160156 C 193.5625 34.839844 191.734375 34.761719 190.921875 34.980469 Z M 190.921875 34.980469 "/>
<path style=" stroke:none;fill-rule:nonzero;fill:rgb(0%,0%,0%);fill-opacity:1;" d="M 3.019531 35.179688 C 2.917969 35.445312 2.886719 46.265625 2.980469 46.519531 C 3.03125 46.632812 3.179688 46.671875 3.59375 46.671875 L 4.160156 46.671875 L 4.152344 40.898438 C 4.144531 35.351562 4.132812 35.121094 3.964844 35.027344 C 3.871094 34.980469 3.632812 34.933594 3.445312 34.933594 C 3.171875 34.933594 3.09375 34.980469 3.019531 35.179688 Z M 3.019531 35.179688 "/>
<path style=" stroke:none;fill-rule:nonzero;fill:rgb(0%,0%,0%);fill-opacity:1;" d="M 7.578125 35.285156 C 7.484375 35.746094 7.472656 46.066406 7.578125 46.40625 C 7.644531 46.652344 7.683594 46.671875 8.117188 46.671875 C 8.371094 46.671875 8.605469 46.625 8.636719 46.570312 C 8.671875 46.511719 8.71875 44.4375 8.75 41.957031 C 8.777344 39.476562 8.816406 37.421875 8.832031 37.402344 C 8.878906 37.347656 9.550781 38.105469 10.476562 39.230469 C 10.851562 39.695312 11.257812 40.1875 11.371094 40.320312 C 11.910156 40.925781 15.023438 44.65625 15.382812 45.101562 C 15.761719 45.582031 16.742188 46.585938 16.929688 46.691406 C 17.054688 46.757812 17.136719 46.75 17.242188 46.644531 C 17.363281 46.53125 17.394531 45.679688 17.421875 40.878906 C 17.46875 35.691406 17.460938 35.234375 17.308594 35.113281 C 17.109375 34.953125 16.429688 34.960938 16.316406 35.132812 C 16.269531 35.207031 16.234375 37.300781 16.234375 39.78125 C 16.234375 42.269531 16.203125 44.304688 16.167969 44.304688 C 16.121094 44.304688 15.882812 44.039062 15.617188 43.710938 C 15.363281 43.386719 15.035156 43 14.890625 42.839844 C 14.761719 42.6875 14.308594 42.148438 13.902344 41.644531 C 13.496094 41.144531 12.824219 40.339844 12.410156 39.855469 C 11.996094 39.363281 11.363281 38.625 11.011719 38.199219 C 8.210938 34.875 7.75 34.488281 7.578125 35.285156 Z M 7.578125 35.285156 "/>
<path style=" stroke:none;fill-rule:nonzero;fill:rgb(0%,0%,0%);fill-opacity:1;" d="M 20.433594 34.988281 C 19.621094 35.054688 19.535156 35.09375 19.535156 35.398438 C 19.535156 35.945312 19.640625 35.976562 21.78125 35.976562 L 23.734375 35.976562 L 23.707031 41.105469 C 23.6875 43.9375 23.707031 46.339844 23.734375 46.453125 C 23.78125 46.644531 23.847656 46.671875 24.300781 46.671875 C 24.765625 46.671875 24.820312 46.652344 24.878906 46.445312 C 24.90625 46.320312 24.914062 43.917969 24.894531 41.097656 L 24.867188 35.976562 L 26.800781 35.976562 C 27.867188 35.976562 28.785156 35.9375 28.839844 35.898438 C 28.984375 35.804688 29.066406 35.285156 28.972656 35.121094 C 28.898438 35 28.273438 34.980469 24.894531 34.972656 C 22.695312 34.960938 20.695312 34.972656 20.433594 34.988281 Z M 20.433594 34.988281 "/>
<path style=" stroke:none;fill-rule:nonzero;fill:rgb(0%,0%,0%);fill-opacity:1;" d="M 31.804688 35.019531 L 31.378906 35.074219 L 31.378906 46.625 L 35.496094 46.652344 L 39.617188 46.671875 L 39.65625 46.273438 C 39.683594 46.027344 39.65625 45.820312 39.589844 45.746094 C 39.503906 45.648438 38.722656 45.613281 35.996094 45.601562 L 32.511719 45.582031 L 32.511719 41.550781 L 35.296875 41.550781 C 36.835938 41.542969 38.15625 41.503906 38.242188 41.457031 C 38.4375 41.351562 38.476562 40.785156 38.296875 40.632812 C 38.175781 40.539062 35.703125 40.433594 33.578125 40.425781 L 32.464844 40.425781 L 32.464844 35.976562 L 35.890625 35.957031 L 39.308594 35.925781 L 39.308594 35.074219 L 38.695312 35.019531 C 37.921875 34.941406 32.371094 34.941406 31.804688 35.019531 Z M 31.804688 35.019531 "/>
<path style=" stroke:none;fill-rule:nonzero;fill:rgb(0%,0%,0%);fill-opacity:1;" d="M 43.015625 35.007812 C 42.855469 35.039062 42.847656 35.378906 42.847656 40.558594 C 42.847656 43.597656 42.875 46.21875 42.902344 46.378906 C 42.960938 46.644531 42.996094 46.671875 43.316406 46.671875 C 44.015625 46.671875 43.988281 46.757812 43.980469 44.742188 L 43.960938 42.933594 L 45.941406 42.914062 L 47.921875 42.90625 L 48.425781 43.578125 C 50.167969 45.953125 50.5 46.386719 50.699219 46.519531 C 50.820312 46.605469 51.105469 46.671875 51.359375 46.671875 C 52.125 46.671875 52.027344 46.464844 50.246094 44.191406 C 49.605469 43.378906 49.074219 42.675781 49.074219 42.628906 C 49.074219 42.59375 49.347656 42.429688 49.6875 42.28125 C 50.859375 41.757812 51.453125 40.886719 51.640625 39.429688 C 51.953125 36.988281 50.621094 35.351562 48.074219 35.027344 C 47.328125 34.933594 43.449219 34.925781 43.015625 35.007812 Z M 47.960938 36.078125 C 49.199219 36.269531 49.71875 36.609375 50.179688 37.527344 C 50.800781 38.75 50.386719 40.546875 49.3125 41.296875 C 48.613281 41.789062 48.167969 41.863281 45.988281 41.910156 L 43.980469 41.957031 L 43.980469 35.976562 L 45.640625 35.976562 C 46.546875 35.976562 47.59375 36.023438 47.960938 36.078125 Z M 47.960938 36.078125 "/>
<path style=" stroke:none;fill-rule:nonzero;fill:rgb(0%,0%,0%);fill-opacity:1;" d="M 58.476562 35.777344 C 57.898438 36.921875 56.871094 39.136719 55.859375 41.429688 C 55.398438 42.46875 54.832031 43.71875 54.605469 44.183594 C 53.804688 45.820312 53.59375 46.3125 53.625 46.464844 C 53.660156 46.671875 54.425781 46.738281 54.671875 46.558594 C 54.757812 46.492188 55.097656 45.78125 55.425781 44.976562 L 56.011719 43.519531 L 59.117188 43.511719 C 61.796875 43.5 62.222656 43.519531 62.269531 43.644531 C 62.496094 44.285156 63.550781 46.464844 63.675781 46.550781 C 63.863281 46.691406 64.609375 46.710938 64.695312 46.578125 C 64.722656 46.53125 64.429688 45.773438 64.050781 44.902344 C 62.816406 42.109375 61.75 39.734375 61.390625 38.957031 C 61.191406 38.539062 60.785156 37.652344 60.476562 36.976562 C 59.976562 35.859375 59.578125 35.1875 59.324219 35.007812 C 59.042969 34.808594 58.878906 34.953125 58.476562 35.777344 Z M 59.316406 36.894531 C 59.398438 37.253906 60.550781 39.867188 61.15625 41.085938 C 61.429688 41.636719 61.683594 42.195312 61.722656 42.335938 L 61.796875 42.582031 L 59.164062 42.601562 L 56.53125 42.609375 L 56.632812 42.347656 C 56.691406 42.203125 56.871094 41.757812 57.050781 41.371094 C 57.21875 40.984375 57.664062 39.960938 58.03125 39.097656 C 58.410156 38.238281 58.75 37.453125 58.796875 37.347656 C 58.84375 37.242188 58.929688 37.042969 58.984375 36.894531 C 59.03125 36.75 59.117188 36.636719 59.164062 36.636719 C 59.210938 36.636719 59.277344 36.75 59.316406 36.894531 Z M 59.316406 36.894531 "/>
<path style=" stroke:none;fill-rule:nonzero;fill:rgb(0%,0%,0%);fill-opacity:1;" d="M 78.992188 35 C 78.199219 35.066406 78.144531 35.09375 78.144531 35.453125 C 78.144531 35.679688 78.199219 35.804688 78.320312 35.878906 C 78.433594 35.9375 79.292969 35.976562 80.445312 35.976562 L 82.378906 35.976562 L 82.3125 36.183594 C 82.230469 36.484375 82.199219 45.886719 82.285156 46.292969 C 82.34375 46.605469 82.371094 46.625 82.765625 46.652344 C 83.003906 46.664062 83.25 46.632812 83.324219 46.585938 C 83.425781 46.519531 83.457031 45.6875 83.445312 41.625 C 83.445312 38.949219 83.417969 36.582031 83.378906 36.363281 L 83.316406 35.976562 L 85.429688 35.957031 L 87.53125 35.925781 L 87.5625 35.539062 C 87.582031 35.234375 87.550781 35.132812 87.417969 35.066406 C 87.25 34.988281 79.824219 34.925781 78.992188 35 Z M 78.992188 35 "/>
<path style=" stroke:none;fill-rule:nonzero;fill:rgb(0%,0%,0%);fill-opacity:1;" d="M 90.335938 35.007812 C 90.25 35.066406 90.222656 36.304688 90.242188 40.859375 L 90.269531 46.625 L 90.769531 46.652344 C 91.109375 46.671875 91.28125 46.644531 91.308594 46.558594 C 91.382812 46.332031 91.429688 35.253906 91.355469 35.132812 C 91.269531 34.980469 90.503906 34.894531 90.335938 35.007812 Z M 90.335938 35.007812 "/>
<path style=" stroke:none;fill-rule:nonzero;fill:rgb(0%,0%,0%);fill-opacity:1;" d="M 94.035156 35.074219 C 93.980469 35.207031 94.460938 36.351562 95.449219 38.464844 C 95.742188 39.078125 96.214844 40.101562 96.507812 40.738281 C 97.59375 43.101562 99.253906 46.4375 99.40625 46.558594 C 99.492188 46.632812 99.632812 46.671875 99.726562 46.652344 C 99.894531 46.625 100.367188 45.828125 100.832031 44.777344 C 100.980469 44.4375 101.414062 43.511719 101.792969 42.707031 C 102.179688 41.910156 102.492188 41.238281 102.492188 41.230469 C 102.492188 41.210938 102.753906 40.652344 103.066406 39.988281 C 104.011719 38.011719 105.246094 35.273438 105.257812 35.121094 C 105.285156 34.894531 104.5 34.875 104.265625 35.09375 C 103.992188 35.339844 103.726562 35.878906 100.359375 43.152344 C 99.839844 44.285156 99.585938 44.695312 99.519531 44.542969 C 99.492188 44.484375 99.265625 43.972656 99.007812 43.40625 C 98.199219 41.558594 97.714844 40.492188 97.300781 39.621094 C 97.082031 39.144531 96.828125 38.597656 96.734375 38.390625 C 95.761719 36.269531 95.214844 35.226562 95.027344 35.09375 C 94.742188 34.894531 94.109375 34.875 94.035156 35.074219 Z M 94.035156 35.074219 "/>
<path style=" stroke:none;fill-rule:nonzero;fill:rgb(0%,0%,0%);fill-opacity:1;" d="M 107.605469 35.019531 C 107.523438 35.074219 107.492188 36.402344 107.511719 40.859375 L 107.539062 46.625 L 111.636719 46.652344 C 114.855469 46.671875 115.75 46.652344 115.816406 46.558594 C 115.855469 46.492188 115.894531 46.273438 115.894531 46.085938 C 115.894531 45.792969 115.855469 45.714844 115.675781 45.679688 C 115.554688 45.640625 113.929688 45.613281 112.0625 45.601562 L 108.671875 45.582031 L 108.644531 43.546875 L 108.625 41.511719 L 111.476562 41.53125 C 113.324219 41.542969 114.375 41.511719 114.457031 41.445312 C 114.515625 41.390625 114.570312 41.210938 114.570312 41.039062 C 114.570312 40.871094 114.515625 40.6875 114.457031 40.632812 C 114.324219 40.539062 112.042969 40.433594 109.929688 40.425781 L 108.625 40.425781 L 108.625 35.976562 L 112.015625 35.976562 C 114.0625 35.976562 115.429688 35.9375 115.46875 35.878906 C 115.554688 35.746094 115.554688 35.132812 115.476562 35.046875 C 115.382812 34.960938 107.757812 34.925781 107.605469 35.019531 Z M 107.605469 35.019531 "/>
<path style=" stroke:none;fill-rule:nonzero;fill:rgb(0%,0%,0%);fill-opacity:1;" d="M 134.34375 35 C 134.042969 35.019531 133.730469 35.085938 133.652344 35.140625 C 133.511719 35.265625 133.589844 35.785156 133.765625 35.898438 C 133.824219 35.9375 134.738281 35.976562 135.804688 35.976562 L 137.742188 35.976562 L 137.710938 40.984375 C 137.695312 43.738281 137.722656 46.132812 137.769531 46.3125 C 137.84375 46.617188 137.855469 46.625 138.363281 46.625 L 138.875 46.625 L 138.875 35.976562 L 142.949219 35.976562 L 143.007812 35.566406 C 143.035156 35.351562 143.015625 35.121094 142.96875 35.074219 C 142.875 34.980469 135.53125 34.914062 134.34375 35 Z M 134.34375 35 "/>
<path style=" stroke:none;fill-rule:nonzero;fill:rgb(0%,0%,0%);fill-opacity:1;" d="M 145.121094 35.132812 C 145.027344 35.484375 145.046875 41.921875 145.148438 42.828125 C 145.394531 45.167969 147.046875 46.605469 149.632812 46.738281 C 150.152344 46.765625 150.832031 46.738281 151.140625 46.683594 C 152.492188 46.4375 153.585938 45.566406 154.210938 44.257812 C 154.738281 43.152344 154.792969 42.628906 154.757812 38.578125 L 154.726562 35.074219 L 154.273438 34.988281 C 153.945312 34.925781 153.792969 34.933594 153.707031 35.019531 C 153.625 35.105469 153.578125 36.164062 153.539062 39.03125 C 153.492188 41.96875 153.445312 43.027344 153.351562 43.3125 C 153.058594 44.164062 152.359375 45.035156 151.699219 45.375 C 150.699219 45.886719 148.867188 45.8125 147.859375 45.214844 C 147.132812 44.789062 146.488281 43.832031 146.347656 42.980469 C 146.308594 42.800781 146.28125 40.972656 146.273438 38.9375 C 146.253906 36.894531 146.214844 35.171875 146.179688 35.113281 C 146.140625 35.046875 145.902344 34.980469 145.648438 34.960938 C 145.214844 34.914062 145.167969 34.933594 145.121094 35.132812 Z M 145.121094 35.132812 "/>
<path style=" stroke:none;fill-rule:nonzero;fill:rgb(0%,0%,0%);fill-opacity:1;" d="M 157.71875 35.019531 C 157.617188 35.074219 157.597656 36.183594 157.597656 40.804688 C 157.585938 44.4375 157.625 46.539062 157.683594 46.597656 C 157.851562 46.765625 162.457031 46.632812 163.117188 46.445312 C 163.957031 46.207031 164.75 45.746094 165.457031 45.082031 C 167.0625 43.566406 167.734375 41.492188 167.242188 39.582031 C 166.761719 37.734375 165.730469 36.46875 164.023438 35.597656 C 163.035156 35.09375 162.023438 34.933594 159.777344 34.933594 C 158.710938 34.933594 157.785156 34.972656 157.71875 35.019531 Z M 162.695312 36.222656 C 164.617188 36.65625 166.214844 38.757812 166.183594 40.859375 C 166.175781 42.167969 165.628906 43.347656 164.589844 44.335938 C 163.457031 45.414062 162.84375 45.582031 160.203125 45.582031 L 158.785156 45.582031 L 158.757812 40.898438 C 158.75 38.324219 158.757812 36.15625 158.785156 36.089844 C 158.84375 35.925781 161.824219 36.03125 162.695312 36.222656 Z M 162.695312 36.222656 "/>
<path style=" stroke:none;fill-rule:nonzero;fill:rgb(0%,0%,0%);fill-opacity:1;" d="M 170.628906 35.019531 C 170.507812 35.105469 170.488281 35.859375 170.488281 40.871094 L 170.488281 46.625 L 171 46.652344 C 171.28125 46.671875 171.546875 46.644531 171.582031 46.605469 C 171.695312 46.492188 171.707031 35.21875 171.59375 35.105469 C 171.460938 34.972656 170.789062 34.914062 170.628906 35.019531 Z M 170.628906 35.019531 "/>
</g>
</svg>
